# 3ds Max Wavefront OBJ Exporter v0.97b - (c)2007 guruware
# File Created: 19.07.2014 17:11:20

mtllib crate.mtl

#
# object poorfolks_crate
#

v  8.6971 0.0000 31.3029
v  8.6971 0.0000 -31.3029
v  71.3029 0.0000 -31.3029
v  71.3029 0.0000 31.3029
v  8.6971 78.0000 31.3029
v  71.3029 78.0000 31.3029
v  71.3029 78.0000 -31.3029
v  8.6971 78.0000 -31.3029
v  8.6971 8.6971 40.0000
v  0.0000 8.6971 40.0000
v  0.0000 -0.0000 40.0000
v  8.6971 -0.0000 40.0000
v  80.0000 0.0000 31.3029
v  80.0000 -0.0000 40.0000
v  71.3029 -0.0000 40.0000
v  0.0000 8.6971 -31.3029
v  0.0000 8.6971 -40.0000
v  0.0000 0.0000 -40.0000
v  0.0000 0.0000 -31.3029
v  71.3029 0.0000 -40.0000
v  80.0000 0.0000 -40.0000
v  80.0000 0.0000 -31.3029
v  80.0000 71.3029 31.3029
v  80.0000 80.0000 31.3029
v  80.0000 80.0000 40.0000
v  80.0000 71.3029 40.0000
v  71.3029 71.3029 -40.0000
v  71.3029 80.0000 -40.0000
v  80.0000 80.0000 -40.0000
v  80.0000 71.3029 -40.0000
v  0.0000 0.0000 31.3029
v  8.6971 0.0000 -40.0000
v  71.3029 80.0000 40.0000
v  71.3029 80.0000 31.3029
v  8.6971 80.0000 31.3029
v  8.6971 80.0000 40.0000
v  80.0000 80.0000 -31.3029
v  71.3029 80.0000 -31.3029
v  8.6971 80.0000 -40.0000
v  8.6971 80.0000 -31.3029
v  0.0000 80.0000 31.3029
v  0.0000 80.0000 -31.3029
v  71.3029 8.6971 40.0000
v  80.0000 8.6971 40.0000
v  8.6971 8.6971 -40.0000
v  80.0000 8.6971 -31.3029
v  80.0000 8.6971 -40.0000
v  0.0000 80.0000 40.0000
v  0.0000 71.3029 31.3029
v  0.0000 71.3029 40.0000
v  71.3029 71.3029 40.0000
v  0.0000 80.0000 -40.0000
v  8.6971 71.3029 -40.0000
v  0.0000 71.3029 -40.0000
v  71.3029 8.6971 -40.0000
v  0.0000 71.3029 -31.3029
v  0.0000 8.6971 31.3029
v  80.0000 71.3029 -31.3029
v  80.0000 8.6971 31.3029
v  71.3029 8.6971 38.0000
v  71.3029 71.3029 38.0000
v  8.6971 71.3029 38.0000
v  8.6971 8.6971 38.0000
v  78.0000 8.6971 -31.3029
v  78.0000 71.3029 -31.3029
v  78.0000 71.3029 31.3029
v  78.0000 8.6971 31.3029
v  8.6971 71.3029 -38.0000
v  71.3029 71.3029 -38.0000
v  71.3029 8.6971 -38.0000
v  8.6971 8.6971 -38.0000
v  2.0000 8.6971 31.3029
v  2.0000 71.3029 31.3029
v  2.0000 71.3029 -31.3029
v  2.0000 8.6971 -31.3029
v  8.6971 71.3029 40.0000
v  8.6971 65.3029 40.0000
v  65.3029 8.6971 40.0000
v  14.6971 71.3029 -40.0000
v  71.3029 14.6971 -40.0000
v  80.0000 71.3029 -25.3029
v  80.0000 14.6971 31.3029
v  0.0000 65.3029 -31.3029
v  0.0000 8.6971 25.3029
v  14.6971 71.3029 40.0000
v  71.3029 14.6971 40.0000
v  8.6971 65.3029 -40.0000
v  65.3029 8.6971 -40.0000
v  80.0000 65.3029 -31.3029
v  80.0000 8.6971 25.3029
v  0.0000 71.3029 -25.3029
v  0.0000 14.6971 31.3029
v  8.6971 65.3029 38.0000
v  65.3029 8.6971 38.0000
v  78.0000 71.3029 -25.3029
v  78.0000 14.6971 31.3029
v  2.0000 65.3029 -31.3029
v  2.0000 8.6971 25.3029
v  71.3029 14.6971 38.0000
v  14.6971 71.3029 38.0000
v  65.3029 8.6971 -38.0000
v  8.6971 65.3029 -38.0000
v  77.8863 8.6971 25.3029
v  77.8863 65.3029 -31.3029
v  2.0000 14.6971 31.3029
v  2.0000 71.3029 -25.3029
v  14.6971 71.3029 -38.0000
v  71.3029 14.6971 -38.0000
# 108 vertices

vn 0.0000 -1.0000 -0.0000
vn 0.0000 1.0000 -0.0000
vn 0.0000 0.0000 1.0000
vn -0.0000 -1.0000 -0.0000
vn -1.0000 -0.0000 0.0000
vn -0.0000 -1.0000 0.0000
vn 1.0000 -0.0000 0.0000
vn -0.0000 -0.0000 -1.0000
vn 0.0000 -1.0000 0.0000
vn -0.0000 1.0000 -0.0000
vn -0.0000 1.0000 0.0000
vn 0.0000 1.0000 0.0000
vn -0.0000 0.0000 1.0000
vn 0.0000 0.0000 -1.0000
vn 1.0000 0.0000 -0.0000
vn -1.0000 0.0000 0.0000
vn -0.0000 -0.0000 1.0000
vn 0.0000 -0.0000 -1.0000
vn -0.0000 0.0000 -1.0000
vn -1.0000 -0.0000 -0.0000
vn 1.0000 0.0000 0.0000
vn -1.0000 0.0000 -0.0000
vn 1.0000 -0.0000 -0.0000
vn 0.0000 -0.0000 1.0000
vn -0.7071 -0.7071 -0.0000
vn 0.0000 0.7071 0.7071
vn 0.0000 -0.7071 -0.7071
vn 0.7071 0.7071 -0.0000
# 28 vertex normals

vt 0.8668 0.8804 0.0000
vt 0.1246 0.8804 0.0000
vt 0.1246 0.1295 0.0000
vt 0.8668 0.1295 0.0000
vt 0.8748 0.8826 0.0000
vt 0.9798 0.8826 0.0000
vt 0.9798 0.9876 0.0000
vt 0.8748 0.9876 0.0000
vt 0.1189 0.8826 0.0000
vt 0.1189 0.9876 0.0000
vt 0.0139 0.9876 0.0000
vt 0.0139 0.8826 0.0000
vt 0.1189 0.1267 0.0000
vt 0.0139 0.1267 0.0000
vt 0.0139 0.0217 0.0000
vt 0.1189 0.0217 0.0000
vt 0.8748 0.1267 0.0000
vt 0.8748 0.0217 0.0000
vt 0.9798 0.0217 0.0000
vt 0.9798 0.1267 0.0000
vt 0.0446 0.8675 0.0000
vt 0.0446 0.1116 0.0000
vt 0.0687 0.1116 0.0000
vt 0.0687 0.8675 0.0000
vt 0.1213 0.0634 0.0000
vt 0.8772 0.0634 0.0000
vt 0.8772 0.0875 0.0000
vt 0.1213 0.0875 0.0000
vt 0.9503 0.1259 0.0000
vt 0.9503 0.8818 0.0000
vt 0.9261 0.8818 0.0000
vt 0.9261 0.1259 0.0000
vt 0.8708 0.9785 0.0000
vt 0.1149 0.9785 0.0000
vt 0.1149 0.9544 0.0000
vt 0.8708 0.9544 0.0000
vt 0.8809 0.0925 0.0000
vt 0.1334 0.0953 0.0000
vt 0.1334 0.1194 0.0000
vt 0.8809 0.1166 0.0000
vt 0.8893 0.0953 0.0000
vt 0.8893 0.1194 0.0000
vt 0.9091 0.1047 0.0000
vt 0.9091 0.8606 0.0000
vt 0.8849 0.8606 0.0000
vt 0.8849 0.1047 0.0000
vt 0.8708 0.9149 0.0000
vt 0.1149 0.9149 0.0000
vt 0.1149 0.8907 0.0000
vt 0.8708 0.8907 0.0000
vt 0.0887 0.8443 0.0000
vt 0.0887 0.0884 0.0000
vt 0.1129 0.0884 0.0000
vt 0.1129 0.8443 0.0000
vt 0.1250 0.0671 0.0000
vt 0.8809 0.0671 0.0000
vt 0.8809 0.0913 0.0000
vt 0.1250 0.0913 0.0000
vt 0.9156 0.1429 0.0000
vt 0.9156 0.8988 0.0000
vt 0.8915 0.8988 0.0000
vt 0.8915 0.1429 0.0000
vt 0.8708 0.9443 0.0000
vt 0.1149 0.9443 0.0000
vt 0.1149 0.9201 0.0000
vt 0.8708 0.9201 0.0000
vt 0.1250 0.0925 0.0000
vt 0.1250 0.1166 0.0000
vt 0.9485 0.1308 0.0000
vt 0.9485 0.8867 0.0000
vt 0.9244 0.8867 0.0000
vt 0.9244 0.1308 0.0000
vt 0.0262 0.8621 0.0000
vt 0.0262 0.1062 0.0000
vt 0.0504 0.1062 0.0000
vt 0.0504 0.8621 0.0000
vt 0.9543 0.1308 0.0000
vt 0.9543 0.8867 0.0000
vt 0.9301 0.8867 0.0000
vt 0.9301 0.1308 0.0000
vt 0.8636 0.9149 0.0000
vt 0.1077 0.9149 0.0000
vt 0.1077 0.8907 0.0000
vt 0.8636 0.8907 0.0000
vt 0.0457 0.8709 0.0000
vt 0.0457 0.1150 0.0000
vt 0.0698 0.1150 0.0000
vt 0.0698 0.8709 0.0000
vt 0.0698 0.8807 0.0000
vt 0.0306 0.8441 0.0000
vt 0.0306 0.1549 0.0000
vt 0.0698 0.1183 0.0000
vt 0.0994 0.9498 0.0000
vt 0.1371 0.9106 0.0000
vt 0.8480 0.9105 0.0000
vt 0.8857 0.9498 0.0000
vt 0.9062 0.0618 0.0000
vt 0.8669 0.1011 0.0000
vt 0.1264 0.1011 0.0000
vt 0.0871 0.0618 0.0000
vt 0.9309 0.8865 0.0000
vt 0.8870 0.8493 0.0000
vt 0.8870 0.1487 0.0000
vt 0.9309 0.1115 0.0000
vt 0.1090 0.8441 0.0000
vt 0.1090 0.1548 0.0000
vt 0.1371 0.9890 0.0000
vt 0.8480 0.9890 0.0000
vt 0.8669 0.0226 0.0000
vt 0.1264 0.0226 0.0000
vt 0.9749 0.8493 0.0000
vt 0.9749 0.1487 0.0000
vt 0.0462 0.0849 0.0000
vt 0.0463 0.9286 0.0000
vt 0.0240 0.9286 0.0000
vt 0.0240 0.0849 0.0000
vt 0.0544 0.0624 0.0000
vt 0.0544 0.9225 0.0000
vt 0.0322 0.9225 0.0000
vt 0.0322 0.0624 0.0000
vt 0.0544 0.0972 0.0000
vt 0.0544 0.8774 0.0000
vt 0.0322 0.8774 0.0000
vt 0.0322 0.0972 0.0000
vt 0.9454 0.9144 0.0000
vt 0.9454 0.0748 0.0000
vt 0.9677 0.0748 0.0000
vt 0.9680 0.9144 0.0000
vt 0.9199 0.8861 0.0000
vt 0.9199 0.1448 0.0000
vt 0.9421 0.1448 0.0000
vt 0.9424 0.8860 0.0000
vt 0.9342 0.8840 0.0000
vt 0.9342 0.0772 0.0000
vt 0.9565 0.0772 0.0000
vt 0.9568 0.8840 0.0000
vt 0.9372 0.8963 0.0000
vt 0.9372 0.0936 0.0000
vt 0.9595 0.0936 0.0000
vt 0.9598 0.8963 0.0000
vt 0.0647 0.1033 0.0000
vt 0.0647 0.9307 0.0000
vt 0.0424 0.9307 0.0000
vt 0.0424 0.1033 0.0000
# 144 texture coords

g poorfolks_crate
usemtl Material__456
s 2
f 1/1/1 2/2/1 3/3/1 4/4/1 
s 4
f 5/3/2 6/4/2 7/1/2 8/2/2 
s off
f 9/5/3 10/6/3 11/7/3 12/8/3 
f 4/9/4 13/10/4 14/11/4 15/12/4 
f 16/13/5 17/14/5 18/15/5 19/16/5 
f 3/5/6 20/6/6 21/7/6 22/8/6 
f 23/17/7 24/18/7 25/19/7 26/20/7 
f 27/5/8 28/6/8 29/7/8 30/8/8 
f 19/18/1 2/17/1 1/13/1 31/16/1 
f 20/6/9 3/5/9 2/17/9 32/20/9 
f 13/10/4 4/9/4 3/5/4 22/8/4 
f 12/14/1 1/13/1 4/9/1 15/12/1 
f 33/14/10 34/13/10 35/9/10 36/12/10 
f 37/18/11 38/17/11 34/13/11 24/16/11 
f 39/6/12 40/5/12 38/17/12 28/20/12 
f 41/10/2 35/9/2 40/5/2 42/8/2 
f 43/9/13 15/10/13 14/11/13 44/12/13 
f 1/13/1 12/14/1 11/15/1 31/16/1 
f 32/14/14 18/15/14 17/16/14 45/13/14 
f 2/17/6 19/18/6 18/19/6 32/20/6 
f 46/9/15 22/10/15 21/11/15 47/12/15 
f 41/10/12 48/11/12 36/12/12 35/9/12 
f 49/5/16 50/6/16 48/7/16 41/8/16 
f 33/14/2 25/15/2 24/16/2 34/13/2 
f 51/13/17 26/14/17 25/15/17 33/16/17 
f 39/6/12 52/7/12 42/8/12 40/5/12 
f 52/19/18 39/20/18 53/17/18 54/18/18 
f 37/18/11 29/19/11 28/20/11 38/17/11 
f 55/9/19 47/10/19 21/11/19 20/12/19 
f 56/9/20 54/12/20 17/14/20 16/13/20 
f 57/17/16 10/20/16 50/6/16 49/5/16 
f 58/13/21 37/16/21 24/18/21 23/17/21 
f 9/5/13 12/8/13 15/10/13 43/9/13 
f 20/12/19 32/14/19 45/13/19 55/9/19 
f 44/12/13 26/14/13 51/13/13 43/9/13 
f 55/9/19 27/5/19 30/8/19 47/10/19 
f 57/17/20 31/18/20 11/19/20 10/20/20 
f 59/5/21 23/17/21 26/20/21 44/6/21 
f 60/2/3 61/3/3 62/4/3 63/1/3 
f 44/6/21 14/7/21 13/8/21 59/5/21 
f 57/17/20 16/13/20 19/16/20 31/18/20 
f 56/9/22 42/10/22 52/11/22 54/12/22 
f 58/13/23 46/9/23 47/12/23 30/14/23 
f 53/17/14 45/13/14 17/16/14 54/18/14 
f 30/14/23 29/15/23 37/16/23 58/13/23 
f 56/9/16 49/5/16 41/8/16 42/10/16 
f 13/8/21 22/10/21 46/9/21 59/5/21 
f 27/5/8 53/17/8 39/20/8 28/6/8 
f 35/21/19 34/22/19 6/23/19 5/24/19 
f 34/25/22 38/26/22 7/27/22 6/28/22 
f 38/29/3 40/30/3 8/31/3 7/32/3 
f 40/33/15 35/34/15 5/35/15 8/36/15 
f 64/2/7 65/3/7 66/4/7 67/1/7 
f 68/3/19 69/4/19 70/1/19 71/2/19 
f 72/2/5 73/3/5 74/4/5 75/1/5 
f 43/37/22 51/38/22 61/39/22 60/40/22 
f 51/38/1 76/41/1 62/42/1 61/39/1 
f 76/43/15 9/44/15 63/45/15 62/46/15 
f 9/47/10 43/48/10 60/49/10 63/50/10 
f 46/51/3 58/52/3 65/53/3 64/54/3 
f 58/55/1 23/56/1 66/57/1 65/58/1 
f 23/59/18 59/60/18 67/61/18 66/62/18 
f 59/63/2 46/64/2 64/65/2 67/66/2 
f 45/67/15 53/37/15 68/40/15 71/68/15 
f 53/69/1 27/70/1 69/71/1 68/72/1 
f 27/47/22 55/48/22 70/49/22 69/50/22 
f 55/73/10 45/74/10 71/75/10 70/76/10 
f 16/67/2 57/37/2 72/40/2 75/68/2 
f 57/77/14 49/78/14 73/79/14 72/80/14 
f 49/81/1 56/82/1 74/83/1 73/84/1 
f 56/85/24 16/86/24 75/87/24 74/88/24 
s 1
f 36/18/24 76/17/24 51/13/24 33/16/24 
s 2
f 10/6/24 9/5/24 76/17/24 50/20/24 
s off
f 50/20/13 76/17/13 36/18/13 48/19/13 
s 8
f 76/89/24 77/90/3 78/91/24 43/92/24 
s 32
f 53/93/19 79/94/14 80/95/19 55/96/19 
s 16
f 58/97/7 81/98/21 82/99/21 59/100/7 
s 64
f 56/101/5 83/102/20 84/103/20 57/104/5 
s 8
f 85/105/24 76/89/24 43/92/24 86/106/3 
s 32
f 87/107/19 53/93/19 55/96/19 88/108/19 
s 16
f 89/109/23 58/97/7 59/100/7 90/110/15 
s 64
f 91/111/16 56/101/5 57/104/5 92/112/16 
s off
f 78/113/25 77/114/25 93/115/25 94/116/25 
f 82/117/26 81/118/26 95/119/26 96/120/26 
f 84/121/27 83/122/27 97/123/27 98/124/27 
f 85/125/28 86/126/28 99/127/28 100/128/28 
f 87/129/25 88/130/25 101/131/25 102/132/25 
f 89/133/27 90/134/27 103/135/27 104/136/27 
f 91/137/26 92/138/26 105/139/26 106/140/26 
f 80/141/28 79/142/28 107/143/28 108/144/28 
# 90 polygons

